<?xml version="1.0" encoding="UTF-8" standalone="no"?>
<!DOCTYPE svg PUBLIC "-//W3C//DTD SVG 1.1//EN" "http://www.w3.org/Graphics/SVG/1.1/DTD/svg11.dtd">
<svg width="100%" height="100%" viewBox="0 0 156 42" version="1.1" xmlns="http://www.w3.org/2000/svg" xmlns:xlink="http://www.w3.org/1999/xlink" xml:space="preserve" xmlns:serif="http://www.serif.com/" style="fill-rule:evenodd;clip-rule:evenodd;stroke-linejoin:round;stroke-miterlimit:2;">
    <g transform="matrix(1,0,0,1,0,-7)">
        <g transform="matrix(1,0,0,-1,21,28)">
            <circle cx="0" cy="0" r="21" style="fill:rgb(94,8,13);"/>
        </g>
        <path d="M14.3,30.37C14.3,29.49 14.55,28.7 15.05,28C15.55,27.28 16.23,26.73 17.09,26.35C16.41,26.19 15.84,25.67 15.38,24.79C14.92,23.89 14.69,23.05 14.69,22.27C14.69,20.41 15.41,19.03 16.85,18.13C18.05,17.39 19.64,17.02 21.62,17.02C22.22,17.02 22.76,17.07 23.24,17.17C23.72,17.27 24.35,17.44 25.13,17.68C25.49,17.68 26.04,17.65 26.78,17.59C27.52,17.53 28.09,17.5 28.49,17.5C28.85,17.5 29.1,17.56 29.24,17.68C29.38,17.8 29.45,18.04 29.45,18.4C29.45,18.54 29.4,18.76 29.3,19.06L28.97,19.27L28.82,19.27C28.58,19.27 28.22,19.24 27.74,19.18C27.26,19.12 26.9,19.09 26.66,19.09C27.08,19.87 27.29,20.73 27.29,21.67C27.29,23.61 26.62,25.02 25.28,25.9C24.16,26.64 22.57,27.01 20.51,27.01C20.27,27.01 19.86,26.97 19.28,26.89C18.72,26.81 18.34,26.77 18.14,26.77C17.88,26.77 17.67,26.92 17.51,27.22C17.37,27.5 17.3,27.78 17.3,28.06C17.3,28.64 17.5,29.04 17.9,29.26C18.2,29.42 18.66,29.5 19.28,29.5C19.94,29.5 20.53,29.48 21.05,29.44C22.89,29.3 23.87,29.23 23.99,29.23C25.47,29.23 26.59,29.57 27.35,30.25C28.11,30.93 28.49,32.01 28.49,33.49C28.49,35.55 27.34,37.14 25.04,38.26C23.22,39.14 21.15,39.58 18.83,39.58C17.45,39.58 16.31,39.38 15.41,38.98C14.17,38.42 13.55,37.54 13.55,36.34C13.55,35.62 13.84,34.98 14.42,34.42C14.8,34.04 15.42,33.64 16.28,33.22C15.7,32.98 15.22,32.6 14.84,32.08C14.48,31.58 14.3,31.01 14.3,30.37ZM20.93,26.02C21.87,26.02 22.56,25.47 23,24.37C23.34,23.53 23.51,22.56 23.51,21.46C23.51,20.6 23.33,19.85 22.97,19.21C22.53,18.43 21.91,18.04 21.11,18.04C20.23,18.04 19.56,18.55 19.1,19.57C18.74,20.35 18.56,21.25 18.56,22.27C18.56,23.25 18.71,24.06 19.01,24.7C19.43,25.58 20.07,26.02 20.93,26.02ZM20.9,38.2C22.08,38.2 23.05,37.98 23.81,37.54C24.75,37 25.22,36.18 25.22,35.08C25.22,34.18 24.72,33.57 23.72,33.25C23.1,33.05 22.21,32.95 21.05,32.95C19.85,32.95 18.9,33.08 18.2,33.34C17.1,33.74 16.55,34.42 16.55,35.38C16.55,36.36 17.06,37.1 18.08,37.6C18.88,38 19.82,38.2 20.9,38.2Z" style="fill:white;fill-rule:nonzero;"/>
        <path d="M57.622,38.32L57.622,37.276L57.946,37.276C58.33,37.276 58.696,37.174 59.044,36.97C59.392,36.766 59.674,36.43 59.89,35.962C60.106,35.494 60.214,34.858 60.214,34.054L60.214,23.2C60.214,22.72 60.124,22.42 59.944,22.3C59.764,22.168 59.548,22.102 59.296,22.102L58.54,22.102L58.54,21.148L64.75,21.148L64.75,22.102L63.994,22.102C63.73,22.102 63.508,22.168 63.328,22.3C63.148,22.432 63.058,22.756 63.058,23.272L63.058,34.036C63.058,34.852 62.926,35.536 62.662,36.088C62.398,36.64 62.038,37.078 61.582,37.402C61.138,37.726 60.628,37.96 60.052,38.104C59.476,38.248 58.882,38.32 58.27,38.32L57.622,38.32ZM71.662,34.18C70.138,34.18 68.98,33.748 68.188,32.884C67.396,32.008 67,30.79 67,29.23C67,27.538 67.39,26.266 68.17,25.414C68.95,24.55 70.048,24.118 71.464,24.118C72.772,24.118 73.798,24.484 74.542,25.216C75.298,25.948 75.676,27.028 75.676,28.456L75.676,29.374L69.772,29.374C69.808,30.574 70.03,31.45 70.438,32.002C70.858,32.554 71.44,32.83 72.184,32.83C72.808,32.83 73.336,32.692 73.768,32.416C74.2,32.128 74.518,31.78 74.722,31.372C75.046,31.552 75.208,31.846 75.208,32.254C75.208,32.77 74.92,33.22 74.344,33.604C73.768,33.988 72.874,34.18 71.662,34.18ZM72.922,28.222C72.922,27.298 72.814,26.578 72.598,26.062C72.382,25.546 72.016,25.288 71.5,25.288C70.996,25.288 70.594,25.54 70.294,26.044C69.994,26.536 69.832,27.262 69.808,28.222L72.922,28.222ZM77.78,34L77.78,33.046L78.176,33.046C78.356,33.046 78.542,33.022 78.734,32.974C78.938,32.914 79.106,32.8 79.238,32.632C79.382,32.464 79.454,32.212 79.454,31.876L79.454,25.576L77.852,25.576L77.852,24.352L79.454,24.352L79.454,23.686C79.454,22.57 79.748,21.706 80.336,21.094C80.924,20.47 81.854,20.158 83.126,20.158C83.906,20.158 84.512,20.218 84.944,20.338C85.376,20.446 85.682,20.602 85.862,20.806C86.042,20.998 86.132,21.22 86.132,21.472C86.132,22.252 85.394,22.642 83.918,22.642C83.918,22.45 83.888,22.24 83.828,22.012C83.768,21.784 83.672,21.592 83.54,21.436C83.42,21.268 83.246,21.184 83.018,21.184C82.718,21.184 82.501,21.352 82.37,21.688C82.25,22.012 82.19,22.57 82.19,23.362L82.19,24.352L84.674,24.352L84.674,25.576L82.19,25.576L82.19,31.876C82.19,32.212 82.256,32.464 82.388,32.632C82.531,32.8 82.706,32.914 82.909,32.974C83.114,33.022 83.3,33.046 83.468,33.046L84.314,33.046L84.314,34L77.78,34ZM86.11,34L86.11,33.046L86.506,33.046C86.686,33.046 86.872,33.022 87.064,32.974C87.268,32.914 87.436,32.8 87.568,32.632C87.712,32.464 87.784,32.212 87.784,31.876L87.784,25.576L86.182,25.576L86.182,24.352L87.784,24.352L87.784,23.686C87.784,22.57 88.078,21.706 88.666,21.094C89.254,20.47 90.184,20.158 91.456,20.158C92.236,20.158 92.842,20.218 93.274,20.338C93.706,20.446 94.012,20.602 94.192,20.806C94.372,20.998 94.462,21.22 94.462,21.472C94.462,22.252 93.724,22.642 92.248,22.642C92.248,22.45 92.218,22.24 92.158,22.012C92.098,21.784 92.002,21.592 91.87,21.436C91.75,21.268 91.576,21.184 91.348,21.184C91.048,21.184 90.832,21.352 90.7,21.688C90.58,22.012 90.52,22.57 90.52,23.362L90.52,24.352L93.004,24.352L93.004,25.576L90.52,25.576L90.52,31.876C90.52,32.212 90.586,32.464 90.718,32.632C90.862,32.8 91.036,32.914 91.24,32.974C91.444,33.022 91.63,33.046 91.798,33.046L92.644,33.046L92.644,34L86.11,34ZM107.387,34.18C105.899,34.18 104.663,33.904 103.679,33.352C102.707,32.8 101.975,32.032 101.483,31.048C101.003,30.052 100.763,28.888 100.763,27.556C100.763,26.26 101.015,25.12 101.519,24.136C102.023,23.14 102.773,22.366 103.769,21.814C104.777,21.25 106.013,20.968 107.477,20.968C108.977,20.968 110.099,21.172 110.843,21.58C111.599,21.976 111.977,22.468 111.977,23.056C111.977,23.476 111.779,23.836 111.383,24.136C110.987,24.436 110.411,24.586 109.655,24.586C109.655,23.854 109.475,23.26 109.115,22.804C108.755,22.348 108.191,22.12 107.423,22.12C106.115,22.12 105.179,22.594 104.615,23.542C104.063,24.478 103.787,25.816 103.787,27.556C103.787,29.296 104.075,30.634 104.651,31.57C105.239,32.494 106.241,32.956 107.657,32.956C107.885,32.956 108.107,32.95 108.323,32.938C108.551,32.914 108.767,32.878 108.971,32.83L108.971,30.184C108.971,29.704 108.863,29.374 108.647,29.194C108.431,29.002 108.113,28.906 107.693,28.906L107.459,28.906L107.459,27.952L113.111,27.952L113.111,28.906L112.877,28.906C112.505,28.906 112.235,29.002 112.067,29.194C111.899,29.386 111.815,29.74 111.815,30.256L111.815,33.208C111.119,33.532 110.411,33.778 109.691,33.946C108.971,34.102 108.203,34.18 107.387,34.18ZM120.097,34.18C118.657,34.18 117.523,33.766 116.695,32.938C115.867,32.098 115.453,30.832 115.453,29.14C115.453,27.448 115.849,26.188 116.641,25.36C117.433,24.532 118.603,24.118 120.151,24.118C121.591,24.118 122.725,24.532 123.553,25.36C124.381,26.188 124.795,27.448 124.795,29.14C124.795,30.832 124.393,32.098 123.589,32.938C122.797,33.766 121.633,34.18 120.097,34.18ZM120.133,33.046C120.829,33.046 121.315,32.716 121.591,32.056C121.867,31.384 122.005,30.412 122.005,29.14C122.005,27.856 121.861,26.89 121.573,26.242C121.297,25.594 120.811,25.27 120.115,25.27C119.419,25.27 118.933,25.594 118.657,26.242C118.381,26.89 118.243,27.856 118.243,29.14C118.243,30.412 118.381,31.384 118.657,32.056C118.945,32.716 119.437,33.046 120.133,33.046ZM129.724,22.732C129.292,22.732 128.926,22.63 128.626,22.426C128.338,22.21 128.194,21.88 128.194,21.436C128.194,20.98 128.338,20.65 128.626,20.446C128.926,20.242 129.292,20.14 129.724,20.14C130.144,20.14 130.504,20.242 130.804,20.446C131.116,20.65 131.272,20.98 131.272,21.436C131.272,21.88 131.116,22.21 130.804,22.426C130.504,22.63 130.144,22.732 129.724,22.732ZM126.952,34L126.952,33.046L127.168,33.046C127.348,33.046 127.534,33.022 127.726,32.974C127.93,32.914 128.098,32.8 128.23,32.632C128.374,32.464 128.446,32.212 128.446,31.876L128.446,26.404C128.446,26.08 128.374,25.84 128.23,25.684C128.086,25.528 127.912,25.426 127.708,25.378C127.516,25.33 127.336,25.306 127.168,25.306L126.952,25.306L126.952,24.352L131.182,24.352L131.182,31.876C131.182,32.212 131.248,32.464 131.38,32.632C131.524,32.8 131.698,32.914 131.902,32.974C132.106,33.022 132.292,33.046 132.46,33.046L132.676,33.046L132.676,34L126.952,34ZM134.335,34L134.335,33.046L134.371,33.046C134.779,33.046 135.115,32.974 135.379,32.83C135.643,32.686 135.775,32.344 135.775,31.804L135.775,26.476C135.775,25.972 135.655,25.654 135.415,25.522C135.187,25.378 134.875,25.306 134.479,25.306L134.425,25.306L134.425,24.352L138.205,24.352L138.439,25.63L138.529,25.63C138.769,25.174 139.027,24.844 139.303,24.64C139.591,24.424 139.897,24.286 140.221,24.226C140.557,24.154 140.911,24.118 141.283,24.118C142.207,24.118 142.933,24.394 143.461,24.946C143.989,25.498 144.253,26.38 144.253,27.592L144.253,31.768C144.253,32.32 144.349,32.674 144.541,32.83C144.745,32.974 145.051,33.046 145.459,33.046L145.513,33.046L145.513,34L141.517,34L141.517,28.078C141.517,27.298 141.409,26.698 141.193,26.278C140.977,25.858 140.605,25.648 140.077,25.648C139.681,25.648 139.369,25.78 139.141,26.044C138.913,26.296 138.751,26.638 138.655,27.07C138.559,27.49 138.511,27.946 138.511,28.438L138.511,31.876C138.511,32.38 138.625,32.704 138.853,32.848C139.093,32.98 139.411,33.046 139.807,33.046L139.861,33.046L139.861,34L134.335,34ZM151.138,34.18C149.83,34.18 148.9,33.982 148.348,33.586C147.796,33.178 147.52,32.674 147.52,32.074C147.52,31.678 147.616,31.384 147.808,31.192C148,31 148.228,30.874 148.492,30.814C148.756,30.742 148.99,30.706 149.194,30.706C149.194,31.45 149.368,32.038 149.716,32.47C150.076,32.902 150.55,33.118 151.138,33.118C151.762,33.118 152.212,32.998 152.488,32.758C152.776,32.518 152.92,32.23 152.92,31.894C152.92,31.498 152.764,31.174 152.452,30.922C152.14,30.67 151.558,30.394 150.706,30.094C149.734,29.758 148.99,29.362 148.474,28.906C147.958,28.438 147.7,27.802 147.7,26.998C147.7,26.038 148.054,25.324 148.762,24.856C149.47,24.376 150.406,24.136 151.57,24.136C152.326,24.136 152.932,24.22 153.388,24.388C153.856,24.544 154.192,24.754 154.396,25.018C154.612,25.27 154.72,25.534 154.72,25.81C154.72,26.218 154.576,26.53 154.288,26.746C154.012,26.95 153.544,27.052 152.884,27.052C152.884,26.452 152.752,25.99 152.488,25.666C152.224,25.33 151.828,25.162 151.3,25.162C150.916,25.162 150.574,25.258 150.274,25.45C149.986,25.63 149.842,25.906 149.842,26.278C149.842,26.53 149.908,26.752 150.04,26.944C150.184,27.136 150.436,27.322 150.796,27.502C151.156,27.682 151.66,27.886 152.308,28.114C153.112,28.39 153.766,28.756 154.27,29.212C154.786,29.656 155.044,30.256 155.044,31.012C155.044,32.008 154.702,32.788 154.018,33.352C153.346,33.904 152.386,34.18 151.138,34.18Z" style="fill:rgb(94,8,13);fill-rule:nonzero;"/>
    </g>
</svg>
